<svg xmlns="http://www.w3.org/2000/svg" width="760" height="290" viewBox="0 0 760 290" role="img" aria-labelledby="t">
  <title id="t">Multi-tenant production architecture</title>
  <rect width="760" height="290" rx="14" fill="#FFFFFF" stroke="#E5E7EB"/>
  <g transform="translate(24 16) scale(0.9)"><g fill="none" stroke="#0F766E" stroke-width="1.75" stroke-linecap="round" stroke-linejoin="round"><path d="M10 2 2 6l8 4 8-4-8-4z"/><path d="M2 10l8 4 8-4M2 14l8 4 8-4"/></g></g>
  <text x="52" y="34" fill="#0B0E13" font-family="ui-sans-serif, system-ui, -apple-system, Segoe UI, Helvetica, Arial, sans-serif" font-size="14" font-weight="700">Multi-tenant production shape</text>
  <text x="52" y="54" fill="#6B7280" font-family="ui-sans-serif, system-ui, -apple-system, Segoe UI, Helvetica, Arial, sans-serif" font-size="11">How HSMS / QuikPOS-class systems are layered</text>

  <rect x="40" y="84" width="140" height="78" rx="12" fill="#F0FDFA" stroke="#0F766E"/>
  <g transform="translate(90 94) scale(0.85)"><g fill="none" stroke="#0F766E" stroke-width="1.75" stroke-linecap="round" stroke-linejoin="round"><circle cx="7" cy="7" r="3"/><path d="M1 17c0-2.5 2.5-4.5 6-4.5s6 2 6 4.5"/><circle cx="14.5" cy="8" r="2.5"/><path d="M19 17c0-2-1.8-3.5-4.5-3.8"/></g></g>
  <text x="110" y="136" text-anchor="middle" fill="#0F766E" font-family="ui-sans-serif, system-ui, -apple-system, Segoe UI, Helvetica, Arial, sans-serif" font-size="12" font-weight="700">Clients</text>
  <text x="110" y="152" text-anchor="middle" fill="#5A636F" font-family="ui-sans-serif, system-ui, -apple-system, Segoe UI, Helvetica, Arial, sans-serif" font-size="10">Web · PWA · Admin</text>

  <text x="190" y="128" fill="#94A3B8" font-size="18">→</text>

  <rect x="210" y="84" width="150" height="78" rx="12" fill="#F8FAFC" stroke="#94A3B8"/>
  <g transform="translate(265 94) scale(0.85)"><g fill="none" stroke="#334155" stroke-width="1.75" stroke-linecap="round" stroke-linejoin="round"><circle cx="10" cy="10" r="8"/><path d="M2 10h16M10 2c2.2 2.4 3.3 5.1 3.3 8S12.2 15.6 10 18c-2.2-2.4-3.3-5.1-3.3-8S7.8 4.4 10 2z"/></g></g>
  <text x="285" y="136" text-anchor="middle" fill="#0B0E13" font-family="ui-sans-serif, system-ui, -apple-system, Segoe UI, Helvetica, Arial, sans-serif" font-size="12" font-weight="700">Edge / App</text>
  <text x="285" y="152" text-anchor="middle" fill="#5A636F" font-family="ui-sans-serif, system-ui, -apple-system, Segoe UI, Helvetica, Arial, sans-serif" font-size="10">Next.js · Auth · RBAC</text>

  <text x="370" y="128" fill="#94A3B8" font-size="18">→</text>

  <rect x="390" y="84" width="150" height="78" rx="12" fill="#F8FAFC" stroke="#94A3B8"/>
  <g transform="translate(445 94) scale(0.85)"><g fill="none" stroke="#334155" stroke-width="1.75" stroke-linecap="round" stroke-linejoin="round"><path d="M10 2 3 5v5c0 4.5 3 7.5 7 9 4-1.5 7-4.5 7-9V5l-7-3z"/></g></g>
  <text x="465" y="136" text-anchor="middle" fill="#0B0E13" font-family="ui-sans-serif, system-ui, -apple-system, Segoe UI, Helvetica, Arial, sans-serif" font-size="12" font-weight="700">API / Rules</text>
  <text x="465" y="152" text-anchor="middle" fill="#5A636F" font-family="ui-sans-serif, system-ui, -apple-system, Segoe UI, Helvetica, Arial, sans-serif" font-size="10">Express · Security rules</text>

  <text x="550" y="128" fill="#94A3B8" font-size="18">→</text>

  <rect x="570" y="84" width="150" height="78" rx="12" fill="#F0FDFA" stroke="#0F766E"/>
  <g transform="translate(625 94) scale(0.85)"><g fill="none" stroke="#0F766E" stroke-width="1.75" stroke-linecap="round" stroke-linejoin="round"><ellipse cx="10" cy="5" rx="7" ry="3"/><path d="M3 5v10c0 1.7 3.1 3 7 3s7-1.3 7-3V5"/><path d="M3 10c0 1.7 3.1 3 7 3s7-1.3 7-3"/></g></g>
  <text x="645" y="136" text-anchor="middle" fill="#0F766E" font-family="ui-sans-serif, system-ui, -apple-system, Segoe UI, Helvetica, Arial, sans-serif" font-size="12" font-weight="700">Data</text>
  <text x="645" y="152" text-anchor="middle" fill="#5A636F" font-family="ui-sans-serif, system-ui, -apple-system, Segoe UI, Helvetica, Arial, sans-serif" font-size="10">Mongo · Firestore</text>

  <rect x="40" y="196" width="210" height="64" rx="12" fill="#FFFBEB" stroke="#D97706"/>
  <g transform="translate(56 212) scale(0.8)"><g fill="none" stroke="#92400E" stroke-width="1.75" stroke-linecap="round" stroke-linejoin="round"><path d="M10 2 3 5v5c0 4.5 3 7.5 7 9 4-1.5 7-4.5 7-9V5l-7-3z"/></g></g>
  <text x="88" y="226" fill="#92400E" font-family="ui-sans-serif, system-ui, -apple-system, Segoe UI, Helvetica, Arial, sans-serif" font-size="12" font-weight="700">Tenant isolation</text>
  <text x="88" y="244" fill="#78716C" font-family="ui-sans-serif, system-ui, -apple-system, Segoe UI, Helvetica, Arial, sans-serif" font-size="10">Platform-enforced, not query filters</text>

  <rect x="275" y="196" width="210" height="64" rx="12" fill="#EEF2FF" stroke="#6366F1"/>
  <g transform="translate(291 212) scale(0.8)"><g fill="none" stroke="#3730A3" stroke-width="1.75" stroke-linecap="round" stroke-linejoin="round"><path d="M3 14a7 7 0 0 1 14 0"/><path d="M6 14a4 4 0 0 1 8 0"/><circle cx="10" cy="14" r="1.5" fill="#3730A3"/></g></g>
  <text x="323" y="226" fill="#3730A3" font-family="ui-sans-serif, system-ui, -apple-system, Segoe UI, Helvetica, Arial, sans-serif" font-size="12" font-weight="700">Offline queue</text>
  <text x="323" y="244" fill="#64748B" font-family="ui-sans-serif, system-ui, -apple-system, Segoe UI, Helvetica, Arial, sans-serif" font-size="10">IndexedDB → reconcile on reconnect</text>

  <rect x="510" y="196" width="210" height="64" rx="12" fill="#F0FDF4" stroke="#16A34A"/>
  <g transform="translate(526 212) scale(0.8)"><g fill="none" stroke="#166534" stroke-width="1.75" stroke-linecap="round" stroke-linejoin="round"><path d="M10 2 2 6l8 4 8-4-8-4z"/><path d="M2 10l8 4 8-4M2 14l8 4 8-4"/></g></g>
  <text x="558" y="226" fill="#166534" font-family="ui-sans-serif, system-ui, -apple-system, Segoe UI, Helvetica, Arial, sans-serif" font-size="12" font-weight="700">Config as data</text>
  <text x="558" y="244" fill="#64748B" font-family="ui-sans-serif, system-ui, -apple-system, Segoe UI, Helvetica, Arial, sans-serif" font-size="10">Workflows/forms without redeploy</text>
</svg>
