<svg xmlns="http://www.w3.org/2000/svg" width="760" height="148" viewBox="0 0 760 148" role="img" aria-labelledby="t">
  <title id="t">Core stack</title>
  <rect width="760" height="148" rx="14" fill="#FFFFFF" stroke="#E5E7EB"/>
  <rect x="0" y="0" width="6" height="148" rx="3" fill="#0F766E"/>
  <g font-family="ui-sans-serif, system-ui, -apple-system, Segoe UI, Helvetica, Arial, sans-serif">
    <g transform="translate(24 18) scale(0.85)"><g fill="none" stroke="#0F766E" stroke-width="1.75" stroke-linecap="round" stroke-linejoin="round"><path d="M10 2 2 6l8 4 8-4-8-4z"/><path d="M2 10l8 4 8-4M2 14l8 4 8-4"/></g></g>
    <text x="52" y="34" fill="#0B0E13" font-size="14" font-weight="700">Stack at a glance</text>

    <text x="28" y="62" fill="#6B7280" font-size="10" font-weight="600" letter-spacing="1.4">CORE</text>
    <text x="28" y="80" fill="#0B0E13" font-size="13">TypeScript · JavaScript · Node.js</text>

    <text x="28" y="108" fill="#6B7280" font-size="10" font-weight="600" letter-spacing="1.4">INTERFACE</text>
    <text x="28" y="126" fill="#0B0E13" font-size="13">React · Next.js · Tailwind · Zustand · TanStack Query</text>

    <g transform="translate(400 48) scale(0.85)"><g fill="none" stroke="#0F766E" stroke-width="1.75" stroke-linecap="round" stroke-linejoin="round"><ellipse cx="10" cy="5" rx="7" ry="3"/><path d="M3 5v10c0 1.7 3.1 3 7 3s7-1.3 7-3V5"/><path d="M3 10c0 1.7 3.1 3 7 3s7-1.3 7-3"/></g></g>
    <text x="430" y="62" fill="#6B7280" font-size="10" font-weight="600" letter-spacing="1.4">SERVER &amp; DATA</text>
    <text x="400" y="80" fill="#0B0E13" font-size="13">Express · MongoDB · Firebase · Convex · JWT</text>

    <g transform="translate(400 96) scale(0.85)"><g fill="none" stroke="#0F766E" stroke-width="1.75" stroke-linecap="round" stroke-linejoin="round"><path d="M5 15c-1 2-2 4-2 4s2-1 4-2"/><path d="M13 3c3 1 6 4 7 7-3 1-5 3-7 5l-3-3c2-2 4-4 5-7z"/><path d="M9 11 5 15"/><circle cx="13.5" cy="6.5" r="1"/></g></g>
    <text x="430" y="108" fill="#6B7280" font-size="10" font-weight="600" letter-spacing="1.4">PLATFORM</text>
    <text x="400" y="126" fill="#0B0E13" font-size="13">Vercel · Docker · Cloudinary · GitHub</text>
  </g>
</svg>
